<svg width="16" height="16" viewBox="0 0 16 16" fill="none" xmlns="http://www.w3.org/2000/svg">
<path d="M5.33333 3.3335V4.66683H3.33333V13.3335H12.6667V4.66683H10.6667V3.3335H12.6667C13.0203 3.3335 13.3594 3.47397 13.6095 3.72402C13.8595 3.97407 14 4.31321 14 4.66683V13.3335C14 13.6871 13.8595 14.0263 13.6095 14.2763C13.3594 14.5264 13.0203 14.6668 12.6667 14.6668H3.33333C2.97971 14.6668 2.64057 14.5264 2.39052 14.2763C2.14048 14.0263 2 13.6871 2 13.3335V4.66683C2 4.31321 2.14048 3.97407 2.39052 3.72402C2.64057 3.47397 2.97971 3.3335 3.33333 3.3335H5.33333ZM8 1.3335C8.17681 1.3335 8.34638 1.40373 8.4714 1.52876C8.59643 1.65378 8.66667 1.82335 8.66667 2.00016V9.21883L9.88533 8.00016C9.94723 7.93822 10.0207 7.88908 10.1016 7.85554C10.1825 7.822 10.2692 7.80473 10.3568 7.80469C10.4443 7.80466 10.531 7.82188 10.612 7.85536C10.6929 7.88884 10.7664 7.93793 10.8283 7.99983C10.8903 8.06173 10.9394 8.13522 10.973 8.2161C11.0065 8.29699 11.0238 8.38369 11.0238 8.47126C11.0238 8.55883 11.0066 8.64554 10.9731 8.72645C10.9397 8.80736 10.8906 8.88089 10.8287 8.94283L8.58867 11.1822C8.43241 11.3383 8.22056 11.426 7.99967 11.426C7.77878 11.426 7.56693 11.3383 7.41067 11.1822L5.17133 8.94283C5.10944 8.88089 5.06035 8.80736 5.02687 8.72645C4.99338 8.64554 4.97617 8.55883 4.9762 8.47126C4.97623 8.38369 4.99351 8.29699 5.02705 8.2161C5.06058 8.13522 5.10973 8.06173 5.17167 7.99983C5.23361 7.93793 5.30713 7.88884 5.38804 7.85536C5.46896 7.82188 5.55567 7.80466 5.64324 7.80469C5.7308 7.80473 5.8175 7.822 5.89839 7.85554C5.97928 7.88908 6.05277 7.93822 6.11467 8.00016L7.33333 9.21883V2.00016C7.33333 1.82335 7.40357 1.65378 7.5286 1.52876C7.65362 1.40373 7.82319 1.3335 8 1.3335Z" fill="#808991"/>
</svg>
