<svg width="14" height="14" viewBox="0 0 14 14" fill="none" xmlns="http://www.w3.org/2000/svg">
<g clip-path="url(#clip0_1669_4512)">
<path d="M3.53537 12.0728C3.96972 11.6385 3.96972 10.9339 3.53537 10.4996C3.10102 10.0652 2.39647 10.0652 1.96212 10.4996C1.52777 10.9339 1.16937 12.8659 1.16937 12.8659C1.16937 12.8659 3.10102 12.5075 3.53572 12.0732L3.53537 12.0728Z" fill="#FF3D29"/>
<path d="M5.28047 11.8339L2.20187 8.75526C2.09967 8.65306 2.13502 8.48016 2.26872 8.42591L3.68412 7.85156L6.19222 10.3597L5.60912 11.7684C5.55417 11.9011 5.38232 11.9354 5.28047 11.8339Z" fill="#8595AA"/>
<path d="M12.4674 3.07633L10.3184 12.2155C10.0933 13.1728 8.90471 13.5109 8.20961 12.8154L1.21976 5.82523C0.524664 5.13013 0.862764 3.94153 1.81966 3.71648L10.9589 1.56748C11.8661 1.35433 12.6809 2.16913 12.4677 3.07633H12.4674Z" fill="#8595AA"/>
<path d="M12.7264 1.30825C13.6394 2.22124 13.6391 3.70344 12.7264 4.61617L6.36722 10.9754L3.0593 7.66744L9.41849 1.30825C10.3315 0.395274 11.8137 0.395521 12.7264 1.30825Z" fill="#D0D6DE"/>
<path d="M10.5459 4.8345C11.2895 4.8345 11.8923 4.23168 11.8923 3.48805C11.8923 2.74443 11.2895 2.1416 10.5459 2.1416C9.80223 2.1416 9.1994 2.74443 9.1994 3.48805C9.1994 4.23168 9.80223 4.8345 10.5459 4.8345Z" fill="#6BA0FF"/>
</g>
<defs>
<clipPath id="clip0_1669_4512">
<rect width="14" height="14" fill="white"/>
</clipPath>
</defs>
</svg>
