<svg width="18" height="18" viewBox="0 0 18 18" fill="none" xmlns="http://www.w3.org/2000/svg">
<g clip-path="url(#clip0_1321_8961)">
<path fill-rule="evenodd" clip-rule="evenodd" d="M7.32376 0.803262L6.56214 1.36239C6.42795 1.46944 6.28578 1.56609 6.13689 1.65151C6.03661 1.70482 5.93152 1.74851 5.82301 1.78201C5.70039 1.81914 5.57326 1.83826 5.31789 1.87764L4.38414 2.02051C3.64726 2.13301 3.27826 2.19039 2.98914 2.36251C2.73039 2.51439 2.51551 2.73039 2.36251 2.98914C2.19039 3.28164 2.13414 3.65064 2.02051 4.38414L1.87764 5.31789C1.83826 5.57326 1.81914 5.70151 1.78201 5.82414C1.74826 5.93289 1.70476 6.03714 1.65151 6.13689C1.59076 6.24939 1.51539 6.35401 1.36239 6.56214L0.803262 7.32376C0.362262 7.92451 0.141762 8.22489 0.0562623 8.55001C-0.017452 8.84053 -0.017452 9.14487 0.0562623 9.43539C0.140637 9.76389 0.362262 10.0654 0.803262 10.6616L1.36239 11.4233C1.51539 11.6314 1.59189 11.736 1.65151 11.8485C1.70401 11.949 1.74751 12.054 1.78201 12.1635C1.81914 12.285 1.83826 12.4121 1.87764 12.6675L2.02051 13.6013C2.13301 14.3381 2.19039 14.706 2.36251 14.9963C2.51439 15.255 2.73039 15.471 2.98914 15.6229C3.28164 15.795 3.65064 15.8513 4.38414 15.9649L5.31789 16.1078C5.57326 16.1471 5.70151 16.1674 5.82301 16.2045C5.93176 16.2375 6.03639 16.281 6.13689 16.335C6.24939 16.3946 6.35401 16.47 6.56214 16.6241L7.32376 17.1833C7.92451 17.6243 8.22489 17.8448 8.55001 17.9303C8.84026 18.0056 9.14514 18.0056 9.43539 17.9303C9.76389 17.8448 10.0654 17.6243 10.6616 17.1833L11.4233 16.6241C11.6314 16.4711 11.736 16.3946 11.8485 16.335C11.949 16.281 12.0536 16.2375 12.1624 16.2045C12.285 16.1674 12.4121 16.1483 12.6675 16.1078L13.6013 15.9649C14.3381 15.8524 14.706 15.7961 14.9963 15.6229C15.255 15.471 15.471 15.255 15.6229 14.9963C15.795 14.7038 15.8513 14.3348 15.9649 13.6013L16.1078 12.6675C16.1471 12.4121 16.1663 12.285 16.2034 12.1624C16.2371 12.0536 16.2806 11.949 16.3339 11.8485C16.3946 11.736 16.47 11.6314 16.623 11.4233L17.1821 10.6616C17.6231 10.0609 17.8436 9.76164 17.9291 9.43539C18.0029 9.14487 18.0029 8.84053 17.9291 8.55001C17.8448 8.22151 17.6231 7.92001 17.1821 7.32376L16.623 6.56214C16.516 6.42795 16.4193 6.28578 16.3339 6.13689C16.2806 6.03661 16.2369 5.93152 16.2034 5.82301C16.1587 5.65731 16.1267 5.48845 16.1078 5.31789L15.9649 4.38414C15.8524 3.64726 15.795 3.27826 15.6229 2.98914C15.4695 2.73131 15.2541 2.5159 14.9963 2.36251C14.7038 2.19039 14.3348 2.13414 13.6013 2.02051L12.6675 1.87764C12.497 1.85865 12.3281 1.82668 12.1624 1.78201C12.0536 1.74919 11.9485 1.70547 11.8485 1.65151C11.6996 1.56609 11.5575 1.46944 11.4233 1.36239L10.6616 0.803262C10.0609 0.362262 9.76051 0.141762 9.43539 0.0562623C9.14487 -0.017452 8.84053 -0.017452 8.55001 0.0562623C8.22151 0.141762 7.92001 0.362262 7.32376 0.803262ZM13.32 6.88951C13.3851 6.81009 13.4336 6.71843 13.4627 6.61993C13.4918 6.52144 13.5008 6.41811 13.4893 6.31607C13.4778 6.21402 13.4459 6.11532 13.3956 6.02581C13.3452 5.93629 13.2775 5.85777 13.1963 5.79489C13.0311 5.66568 12.822 5.60607 12.6136 5.62877C12.4051 5.65146 12.2137 5.75467 12.0803 5.91639L8.35651 10.4839L6.36526 8.95389C6.2026 8.8215 5.99467 8.75788 5.78578 8.77659C5.57689 8.79529 5.38357 8.89484 5.24701 9.05401C5.1803 9.13208 5.12991 9.22272 5.09882 9.32059C5.06774 9.41847 5.05658 9.52157 5.06602 9.62383C5.07546 9.72608 5.1053 9.82541 5.15378 9.91593C5.20225 10.0065 5.26839 10.0864 5.34826 10.1509L7.95826 12.1871C8.12308 12.3212 8.33424 12.3846 8.54565 12.3635C8.75705 12.3425 8.95154 12.2386 9.08664 12.0746L13.3166 6.87714L13.32 6.88951Z" fill="#FFBB26"/>
</g>
<defs>
<clipPath id="clip0_1321_8961">
<rect width="18" height="18" fill="white"/>
</clipPath>
</defs>
</svg>
