<?xml version="1.0" encoding="UTF-8"?>
<svg id="_레이어_1" data-name="레이어_1" xmlns="http://www.w3.org/2000/svg" version="1.1" viewBox="0 0 16 16">
  <!-- Generator: Adobe Illustrator 29.4.0, SVG Export Plug-In . SVG Version: 2.1.0 Build 152)  -->
  <defs>
    <style>
      .st0 {
        fill: none;
      }

      .st1 {
        fill: #808991;
      }

      .st2 {
        fill: #ffbb26;
      }
    </style>
  </defs>
  <path class="st2" d="M7.2,2.1l-1.6,3.2-3.5.5c-.7.1-1,1-.5,1.5l2.5,2.5-.6,3.5c-.1.7.6,1.3,1.3.9l3.1-1.7h0s0-11,0-11c-.3,0-.6.2-.8.5Z"/>
  <g>
    <path class="st0" d="M10.9,9.5c0-.1.1-.3.2-.4l2.4-2.4-3.4-.5c-.1,0-.3,0-.4-.2s-.2-.2-.3-.3l-1.5-3h0c0,.1,0,.3,0,.4,0,0,0,.2,0,.3.2.8.2,1.6,0,2.4.3.5.5,1.1.6,1.7,0,.1,0,.2,0,.3,0,0,0,0,0,0,0,0,0,0,0,0,.2,1.3-.1,2.6-.8,3.6h0c.1,0,.3,0,.4.1l3,1.6-.6-3.4c0-.1,0-.3,0-.4Z"/>
    <path class="st1" d="M13.9,5.8l-3.5-.5-1.6-3.2c0-.2-.2-.3-.3-.4-.1,0-.3-.1-.5-.1,0,0,0,0,0,0v1.1s0,0,0,0h0s1.5,3,1.5,3c0,.1.2.2.3.3s.3.1.4.2l3.4.5-2.4,2.4c-.1.1-.2.2-.2.4,0,.1,0,.3,0,.4l.6,3.4-3-1.6c-.1,0-.3-.1-.4-.1h0s0,0,0,0v1h0s3.1,1.7,3.1,1.7c.7.3,1.4-.2,1.3-.9l-.6-3.5,2.5-2.5c.5-.5.2-1.4-.5-1.5Z"/>
    <polygon class="st1" points="8 1.6 8 1.6 8 1.6 8 1.6"/>
  </g>
</svg>