<svg width="300" height="56" viewBox="0 0 300 56" fill="none" xmlns="http://www.w3.org/2000/svg">
<path d="M268.966 51.32C259.546 51.32 252.166 44.36 252.166 35.12C252.166 25.94 259.786 19.04 269.026 19.04C278.266 19.04 285.826 25.94 285.826 35.12C285.826 44.36 278.386 51.32 268.966 51.32ZM268.966 43.16C273.466 43.16 277.006 39.74 277.006 35.12C277.006 30.56 273.526 27.14 269.026 27.14C264.526 27.14 260.986 30.56 260.986 35.12C260.986 39.74 264.526 43.16 268.966 43.16Z" fill="#121212"/>
<path d="M268.966 51.32C259.546 51.32 252.166 44.36 252.166 35.12C252.166 25.94 259.786 19.04 269.026 19.04C278.266 19.04 285.826 25.94 285.826 35.12C285.826 44.36 278.386 51.32 268.966 51.32ZM268.966 43.16C273.466 43.16 277.006 39.74 277.006 35.12C277.006 30.56 273.526 27.14 269.026 27.14C264.526 27.14 260.986 30.56 260.986 35.12C260.986 39.74 264.526 43.16 268.966 43.16Z" fill="black" fill-opacity="0.2"/>
<path d="M237.791 50.3599V19.9399H246.791V50.3599H237.791Z" fill="#121212"/>
<path d="M237.791 50.3599V19.9399H246.791V50.3599H237.791Z" fill="black" fill-opacity="0.2"/>
<path d="M221.912 50.3596V8.11963H230.732V50.3596H221.912Z" fill="#121212"/>
<path d="M221.912 50.3596V8.11963H230.732V50.3596H221.912Z" fill="black" fill-opacity="0.2"/>
<path d="M199.649 51.32C190.229 51.32 182.849 44.36 182.849 35.12C182.849 25.94 190.469 19.04 199.709 19.04C208.949 19.04 216.509 25.94 216.509 35.12C216.509 44.36 209.069 51.32 199.649 51.32ZM199.649 43.16C204.149 43.16 207.689 39.74 207.689 35.12C207.689 30.56 204.209 27.14 199.709 27.14C195.209 27.14 191.669 30.56 191.669 35.12C191.669 39.74 195.209 43.16 199.649 43.16Z" fill="#121212"/>
<path d="M199.649 51.32C190.229 51.32 182.849 44.36 182.849 35.12C182.849 25.94 190.469 19.04 199.709 19.04C208.949 19.04 216.509 25.94 216.509 35.12C216.509 44.36 209.069 51.32 199.649 51.32ZM199.649 43.16C204.149 43.16 207.689 39.74 207.689 35.12C207.689 30.56 204.209 27.14 199.709 27.14C195.209 27.14 191.669 30.56 191.669 35.12C191.669 39.74 195.209 43.16 199.649 43.16Z" fill="black" fill-opacity="0.2"/>
<path d="M177.145 7.15967C178.465 7.15967 179.785 7.27967 181.585 7.63967V13.9997H180.985C179.905 13.6397 179.125 13.6397 178.225 13.6397C174.625 13.6397 173.425 15.6197 173.425 18.9797V19.9397H180.985V27.3197H173.425V50.3597H164.425V27.3197H160.465V19.9397H164.425V19.6997C164.425 11.7797 168.145 7.15967 177.145 7.15967Z" fill="#121212"/>
<path d="M177.145 7.15967C178.465 7.15967 179.785 7.27967 181.585 7.63967V13.9997H180.985C179.905 13.6397 179.125 13.6397 178.225 13.6397C174.625 13.6397 173.425 15.6197 173.425 18.9797V19.9397H180.985V27.3197H173.425V50.3597H164.425V27.3197H160.465V19.9397H164.425V19.6997C164.425 11.7797 168.145 7.15967 177.145 7.15967Z" fill="black" fill-opacity="0.2"/>
<path d="M151 38.7796L157.36 50.3596H147.88L141.76 38.1796C143.92 37.4596 147.34 35.7796 147.34 31.7596C147.34 28.9396 145.42 27.0796 142.42 27.0796C139.3 27.0796 137.26 28.4596 135.4 30.6796V50.3596H126.58V8.11963H135.4V23.2396H135.82C137.74 21.1396 141.34 18.9796 145.54 18.9796C152.26 18.9796 156.22 23.4796 156.22 29.2396C156.22 33.0796 154.3 36.3796 151 38.7796Z" fill="#121212"/>
<path d="M151 38.7796L157.36 50.3596H147.88L141.76 38.1796C143.92 37.4596 147.34 35.7796 147.34 31.7596C147.34 28.9396 145.42 27.0796 142.42 27.0796C139.3 27.0796 137.26 28.4596 135.4 30.6796V50.3596H126.58V8.11963H135.4V23.2396H135.82C137.74 21.1396 141.34 18.9796 145.54 18.9796C152.26 18.9796 156.22 23.4796 156.22 29.2396C156.22 33.0796 154.3 36.3796 151 38.7796Z" fill="black" fill-opacity="0.2"/>
<path d="M104.139 50.36V19.94H111.039L111.939 23.42H112.419C114.159 20.96 117.219 19.1 121.059 19.04H122.079V27.56H120.999C116.859 27.56 112.839 29.78 112.839 35.84V50.36H104.139Z" fill="#121212"/>
<path d="M104.139 50.36V19.94H111.039L111.939 23.42H112.419C114.159 20.96 117.219 19.1 121.059 19.04H122.079V27.56H120.999C116.859 27.56 112.839 29.78 112.839 35.84V50.36H104.139Z" fill="black" fill-opacity="0.2"/>
<path d="M81.8759 51.32C72.4559 51.32 65.0759 44.36 65.0759 35.12C65.0759 25.94 72.6959 19.04 81.9359 19.04C91.1759 19.04 98.7359 25.94 98.7359 35.12C98.7359 44.36 91.2959 51.32 81.8759 51.32ZM81.8759 43.16C86.3759 43.16 89.9159 39.74 89.9159 35.12C89.9159 30.56 86.4359 27.14 81.9359 27.14C77.4359 27.14 73.8959 30.56 73.8959 35.12C73.8959 39.74 77.4359 43.16 81.8759 43.16Z" fill="#121212"/>
<path d="M81.8759 51.32C72.4559 51.32 65.0759 44.36 65.0759 35.12C65.0759 25.94 72.6959 19.04 81.9359 19.04C91.1759 19.04 98.7359 25.94 98.7359 35.12C98.7359 44.36 91.2959 51.32 81.8759 51.32ZM81.8759 43.16C86.3759 43.16 89.9159 39.74 89.9159 35.12C89.9159 30.56 86.4359 27.14 81.9359 27.14C77.4359 27.14 73.8959 30.56 73.8959 35.12C73.8959 39.74 77.4359 43.16 81.8759 43.16Z" fill="black" fill-opacity="0.2"/>
<path d="M27.14 50.3599L14 19.9399H22.88L29.72 36.4999H30.2L36.92 19.9399H41.6L48.32 36.4999H48.8L55.64 19.9399H64.52L51.38 50.3599H46.82L39.5 32.9599H39.02L31.7 50.3599H27.14Z" fill="#121212"/>
<path d="M27.14 50.3599L14 19.9399H22.88L29.72 36.4999H30.2L36.92 19.9399H41.6L48.32 36.4999H48.8L55.64 19.9399H64.52L51.38 50.3599H46.82L39.5 32.9599H39.02L31.7 50.3599H27.14Z" fill="black" fill-opacity="0.2"/>
<path d="M237.191 10.16C237.191 12.98 239.471 15.26 242.291 15.26C245.171 15.26 247.511 12.92 247.511 10.16C247.511 7.28 245.111 5 242.291 5C239.651 5 237.191 7.16 237.191 10.16Z" fill="#FFBB26"/>
</svg>
