<svg width="175" height="24" viewBox="0 0 175 24" fill="none" xmlns="http://www.w3.org/2000/svg">
<g clip-path="url(#clip0_1706_4058)">
<path d="M171.544 5.87052C169.587 5.87052 168.848 4.8736 168.848 3.65514C168.848 2.39976 169.587 1.40283 171.544 1.40283C173.574 1.40283 174.313 2.39976 174.313 3.65514C174.313 4.8736 173.574 5.87052 171.544 5.87052ZM168.848 19.3474C168.848 18.0921 169.587 17.0951 171.544 17.0951C173.574 17.0951 174.313 18.0921 174.313 19.3474V19.5321C174.276 20.3813 173.907 23.9998 170.953 23.9998C170.953 23.9998 172.54 23.1136 172.467 21.489C172.208 21.5259 171.876 21.5628 171.544 21.5628C169.587 21.5628 168.848 20.5659 168.848 19.3474Z" fill="#FFBB26"/>
<path d="M133.901 20.4554V16.9108H147.193V15.2862C137.15 14.9538 133.975 11.7415 133.975 7.68C133.975 3.50769 137.593 0 148.965 0C160.264 0 163.956 3.50769 163.956 7.68C163.956 11.7415 160.67 14.9169 150.885 15.2862V16.9108H164.03V20.4554H133.901ZM137.667 7.68C137.667 10.1538 139.476 11.7785 148.965 11.7785C158.418 11.7785 160.264 10.1538 160.264 7.68C160.264 5.28 158.418 3.54462 148.965 3.54462C139.513 3.54462 137.667 5.28 137.667 7.68Z" fill="#121212"/>
<path d="M133.901 20.4554V16.9108H147.193V15.2862C137.15 14.9538 133.975 11.7415 133.975 7.68C133.975 3.50769 137.593 0 148.965 0C160.264 0 163.956 3.50769 163.956 7.68C163.956 11.7415 160.67 14.9169 150.885 15.2862V16.9108H164.03V20.4554H133.901ZM137.667 7.68C137.667 10.1538 139.476 11.7785 148.965 11.7785C158.418 11.7785 160.264 10.1538 160.264 7.68C160.264 5.28 158.418 3.54462 148.965 3.54462C139.513 3.54462 137.667 5.28 137.667 7.68Z" fill="black" fill-opacity="0.2"/>
<path d="M126.516 21.1937V20.8245H100.817V8.86138H118.504V4.20907H101.224V0.664454H122.196V12.406H104.51V17.2798H126.516V0.258301H130.208V21.1937H126.516Z" fill="#121212"/>
<path d="M126.516 21.1937V20.8245H100.817V8.86138H118.504V4.20907H101.224V0.664454H122.196V12.406H104.51V17.2798H126.516V0.258301H130.208V21.1937H126.516Z" fill="black" fill-opacity="0.2"/>
<path d="M67.6804 8.34445V5.16907H70.5234V3.43368H67.6804V0.258301H96.1481V3.43368H93.305V5.16907H96.1481V8.34445H83.8527V9.08292H97.0711V12.0368H66.9419V9.08292H80.1604V8.34445H67.6804ZM67.1634 21.2306V15.9875C76.985 15.9875 90.8311 15.5814 92.7142 15.2121V14.8798L67.6065 15.1752V12.5906H96.4065V17.1691C95.1142 17.5014 74.8434 18.4983 70.8557 18.3875V18.7198H97.1081V21.2306H67.1634ZM74.2157 5.16907H89.6127V3.43368H74.2157V5.16907Z" fill="#121212"/>
<path d="M67.6804 8.34445V5.16907H70.5234V3.43368H67.6804V0.258301H96.1481V3.43368H93.305V5.16907H96.1481V8.34445H83.8527V9.08292H97.0711V12.0368H66.9419V9.08292H80.1604V8.34445H67.6804ZM67.1634 21.2306V15.9875C76.985 15.9875 90.8311 15.5814 92.7142 15.2121V14.8798L67.6065 15.1752V12.5906H96.4065V17.1691C95.1142 17.5014 74.8434 18.4983 70.8557 18.3875V18.7198H97.1081V21.2306H67.1634ZM74.2157 5.16907H89.6127V3.43368H74.2157V5.16907Z" fill="black" fill-opacity="0.2"/>
<path d="M33.8408 20.4553V16.9107H63.9701V20.4553H33.8408ZM34.5793 4.20917V0.664551H62.8624V14.7692H59.1701V10.3753H34.9485V6.83071H59.1701V4.20917H34.5793Z" fill="#121212"/>
<path d="M33.8408 20.4553V16.9107H63.9701V20.4553H33.8408ZM34.5793 4.20917V0.664551H62.8624V14.7692H59.1701V10.3753H34.9485V6.83071H59.1701V4.20917H34.5793Z" fill="black" fill-opacity="0.2"/>
<path d="M0.0369232 16.2828V12.7382H26.4738V0.221306H30.1662V21.1936H18.7569V17.8705H26.4738V16.2828H13.6615V21.1936H9.96923V16.2828H0.0369232ZM0 5.87054C0 2.69515 3.36 0.147461 11.9631 0.147461C20.5662 0.147461 23.9631 2.69515 23.9631 5.87054C23.9631 9.08285 20.6031 11.5936 11.9631 11.5936C3.28615 11.5936 0 9.04592 0 5.87054ZM3.69231 5.87054C3.69231 7.089 5.24308 8.049 11.9631 8.049C18.6831 8.049 20.2708 7.089 20.2708 5.87054C20.2708 4.689 18.6831 3.69208 11.9631 3.69208C5.24308 3.69208 3.69231 4.689 3.69231 5.87054Z" fill="#121212"/>
<path d="M0.0369232 16.2828V12.7382H26.4738V0.221306H30.1662V21.1936H18.7569V17.8705H26.4738V16.2828H13.6615V21.1936H9.96923V16.2828H0.0369232ZM0 5.87054C0 2.69515 3.36 0.147461 11.9631 0.147461C20.5662 0.147461 23.9631 2.69515 23.9631 5.87054C23.9631 9.08285 20.6031 11.5936 11.9631 11.5936C3.28615 11.5936 0 9.04592 0 5.87054ZM3.69231 5.87054C3.69231 7.089 5.24308 8.049 11.9631 8.049C18.6831 8.049 20.2708 7.089 20.2708 5.87054C20.2708 4.689 18.6831 3.69208 11.9631 3.69208C5.24308 3.69208 3.69231 4.689 3.69231 5.87054Z" fill="black" fill-opacity="0.2"/>
</g>
<defs>
<clipPath id="clip0_1706_4058">
<rect width="174.277" height="24" fill="white"/>
</clipPath>
</defs>
</svg>
