<svg width="40" height="40" viewBox="0 0 40 40" fill="none" xmlns="http://www.w3.org/2000/svg">
<g clip-path="url(#clip0_1343_3846)">
<path d="M6.24219 11.3169L7.13719 34.1009C7.20119 35.7199 8.53219 36.9999 10.1522 36.9999H30.1832C31.8032 36.9999 33.1342 35.7199 33.1982 34.1009L34.0932 11.3169H6.24219Z" fill="#6B7683"/>
<path d="M6.42383 15.9702L7.13583 34.1012C7.19983 35.7202 8.53083 37.0002 10.1508 37.0002H30.1818C31.8018 37.0002 33.1328 35.7202 33.1968 34.1012L33.9088 15.9702H6.42383Z" fill="#8A94A0"/>
<path d="M16.7042 30.1242C16.0342 30.1242 15.4902 29.5812 15.4902 28.9102V20.5172C15.4902 19.8462 16.0342 19.3032 16.7042 19.3032C17.3742 19.3032 17.9182 19.8462 17.9182 20.5172V28.9102C17.9182 29.5812 17.3742 30.1242 16.7042 30.1242Z" fill="#4B596A"/>
<path d="M23.632 30.1242C22.962 30.1242 22.418 29.5812 22.418 28.9102V20.5172C22.418 19.8462 22.962 19.3032 23.632 19.3032C24.302 19.3032 24.846 19.8462 24.846 20.5172V28.9102C24.846 29.5812 24.302 30.1242 23.632 30.1242Z" fill="#4B596A"/>
<path d="M26.9959 9.15013C26.3259 9.15013 25.7819 8.60713 25.7819 7.93613V6.35213C25.7819 5.17313 24.8229 4.21313 23.6439 4.21313H16.6969C15.5179 4.21313 14.5589 5.17313 14.5589 6.35213V7.93613C14.5589 8.60713 14.0149 9.15013 13.3449 9.15013C12.6749 9.15013 12.1309 8.60713 12.1309 7.93613V6.35213C12.1309 3.83313 14.1799 1.78613 16.6979 1.78613H23.6449C26.1629 1.78613 28.2119 3.83413 28.2119 6.35213V7.93613C28.2119 8.60713 27.6679 9.15013 26.9979 9.15013H26.9959Z" fill="#4B596A"/>
<path d="M34.4162 7.93018H5.5842C4.7508 7.93018 4.0752 8.60578 4.0752 9.43918V11.4502C4.0752 12.2836 4.7508 12.9592 5.5842 12.9592H34.4162C35.2496 12.9592 35.9252 12.2836 35.9252 11.4502V9.43918C35.9252 8.60578 35.2496 7.93018 34.4162 7.93018Z" fill="#8A94A0"/>
</g>
<defs>
<clipPath id="clip0_1343_3846">
<rect width="40" height="40" fill="white"/>
</clipPath>
</defs>
</svg>
