<svg width="16" height="16" viewBox="0 0 16 16" fill="none" xmlns="http://www.w3.org/2000/svg">
<path d="M1.33366 3.51317L2.18699 2.6665L13.3337 13.8132L12.487 14.6665L10.4337 12.6132C9.66699 12.8665 8.85366 12.9998 8.00033 12.9998C4.66699 12.9998 1.82033 10.9265 0.666992 7.99984C1.12699 6.8265 1.86033 5.79317 2.79366 4.97317L1.33366 3.51317ZM8.00033 5.99984C8.53076 5.99984 9.03947 6.21055 9.41454 6.58562C9.78961 6.9607 10.0003 7.4694 10.0003 7.99984C10.0007 8.22688 9.96234 8.45233 9.88699 8.6665L7.33366 6.11317C7.54784 6.03783 7.77328 5.9995 8.00033 5.99984ZM8.00033 2.99984C11.3337 2.99984 14.1803 5.07317 15.3337 7.99984C14.7892 9.38179 13.8647 10.5814 12.667 11.4598L11.7203 10.5065C12.6423 9.8688 13.3858 9.00591 13.8803 7.99984C13.3414 6.89975 12.5047 5.97292 11.4652 5.32474C10.4258 4.67655 9.22532 4.33301 8.00033 4.33317C7.27366 4.33317 6.56033 4.45317 5.89366 4.6665L4.86699 3.6465C5.82699 3.23317 6.88699 2.99984 8.00033 2.99984ZM2.12033 7.99984C2.65922 9.09993 3.49596 10.0267 4.53542 10.6749C5.57487 11.3231 6.77533 11.6667 8.00033 11.6665C8.46033 11.6665 8.91366 11.6198 9.33366 11.5265L7.81366 9.99984C7.34977 9.95011 6.91688 9.74309 6.58698 9.41319C6.25708 9.08329 6.05005 8.6504 6.00033 8.1865L3.73366 5.91317C3.07366 6.47984 2.52033 7.1865 2.12033 7.99984Z" fill="#808991"/>
</svg>
