<svg width="40" height="40" viewBox="0 0 40 40" fill="none" xmlns="http://www.w3.org/2000/svg">
<g clip-path="url(#clip0_1346_4403)">
<path d="M16.7259 6.63219L2.81088 30.7342C1.35588 33.2542 3.17488 36.4042 6.08488 36.4042H33.9159C36.8259 36.4042 38.6439 33.2542 37.1899 30.7342L23.2739 6.63219C21.8189 4.11219 18.1809 4.11219 16.7259 6.63219Z" fill="#FFBB26"/>
<path d="M19.9994 27.5469C18.9554 27.5469 18.1094 28.3929 18.1094 29.4369C18.1094 30.4809 18.9554 31.3269 19.9994 31.3269C21.0434 31.3269 21.8894 30.4809 21.8894 29.4369C21.8894 28.3929 21.0434 27.5469 19.9994 27.5469Z" fill="#515C66"/>
<path d="M19.9984 25.0779C19.1144 25.0779 18.3984 24.3619 18.3984 23.4779V15.6029C18.3984 14.7189 19.1144 14.0029 19.9984 14.0029C20.8824 14.0029 21.5984 14.7189 21.5984 15.6029V23.4779C21.5984 24.3619 20.8824 25.0779 19.9984 25.0779Z" fill="#515C66"/>
</g>
<defs>
<clipPath id="clip0_1346_4403">
<rect width="40" height="40" fill="white"/>
</clipPath>
</defs>
</svg>
