<svg width="56" height="56" viewBox="0 0 56 56" fill="none" xmlns="http://www.w3.org/2000/svg">
<circle cx="28" cy="28" r="28" fill="#FCFCFC" fill-opacity="0.3"/>
<circle cx="28" cy="28" r="20" fill="#FCFCFC"/>
<path d="M22.8903 32.538L26.1663 23.018H28.0563L24.0803 34.442H21.7003L17.7103 23.018H19.6003L22.8903 32.538ZM29.6302 30.914C29.9102 31.586 30.3256 32.104 30.8762 32.468C31.4269 32.832 32.0756 33.014 32.8222 33.014C33.5689 33.014 34.1569 32.8787 34.5862 32.608C35.0156 32.328 35.2302 31.936 35.2302 31.432C35.2302 30.984 35.0902 30.6293 34.8102 30.368C34.5396 30.1067 34.1149 29.8967 33.5362 29.738L31.8562 29.276C30.9416 29.024 30.1949 28.646 29.6162 28.142C29.0376 27.638 28.7482 26.9333 28.7482 26.028C28.7482 25.3747 28.9162 24.8053 29.2522 24.32C29.5976 23.8347 30.0689 23.4613 30.6662 23.2C31.2636 22.9387 31.9356 22.808 32.6822 22.808C33.7089 22.808 34.5956 23.0693 35.3422 23.592C36.0889 24.1053 36.6256 24.7587 36.9522 25.552L35.4402 26.308C35.1696 25.7387 34.8009 25.286 34.3342 24.95C33.8769 24.614 33.3262 24.446 32.6822 24.446C32.0009 24.446 31.4689 24.586 31.0862 24.866C30.7129 25.146 30.5262 25.5333 30.5262 26.028C30.5262 26.4853 30.6756 26.8353 30.9742 27.078C31.2729 27.3207 31.7022 27.5167 32.2622 27.666L33.9002 28.114C35.9722 28.6833 37.0082 29.7893 37.0082 31.432C37.0082 32.0947 36.8216 32.6687 36.4482 33.154C36.0842 33.6393 35.5849 34.008 34.9502 34.26C34.3156 34.5213 33.6062 34.652 32.8222 34.652C31.6836 34.652 30.7036 34.3907 29.8822 33.868C29.0609 33.3453 28.4682 32.6127 28.1042 31.67L29.6302 30.914Z" fill="#030303"/>
</svg>
