<?xml version="1.0" encoding="UTF-8"?>
<svg id="_레이어_1" data-name="레이어_1" xmlns="http://www.w3.org/2000/svg" version="1.1" viewBox="0 0 18 18">
  <!-- Generator: Adobe Illustrator 29.4.0, SVG Export Plug-In . SVG Version: 2.1.0 Build 152)  -->
  <defs>
    <style>
      .st0 {
        fill: #808991;
      }
    </style>
  </defs>
  <path class="st0" d="M9,16.4c-2,0-3.9-.8-5.3-2.2-1.4-1.4-2.2-3.3-2.2-5.3s.8-3.9,2.2-5.3c1.4-1.4,3.3-2.2,5.3-2.2s3.9.8,5.3,2.2c1.4,1.4,2.2,3.3,2.2,5.3s-.8,3.9-2.2,5.3c-1.4,1.4-3.3,2.2-5.3,2.2ZM9,17.5c2.3,0,4.4-.9,6-2.5,1.6-1.6,2.5-3.8,2.5-6s-.9-4.4-2.5-6c-1.6-1.6-3.8-2.5-6-2.5s-4.4.9-6,2.5c-1.6,1.6-2.5,3.8-2.5,6s.9,4.4,2.5,6c1.6,1.6,3.8,2.5,6,2.5Z"/>
  <path class="st0" d="M6.1,6.6s0,0,0,.1c0,0,0,0,0,0,0,0,0,0,0,0,0,0,0,0,.1,0h.9c.1,0,.3-.1.3-.3,0-.7.6-1.2,1.4-1.2s1.4.4,1.4,1.2-.4,1-1,1.5c-.7.5-1.3,1.1-1.2,2.1v.2c0,0,0,.1,0,.2,0,0,.1,0,.2,0h.9c0,0,.1,0,.2,0,0,0,0-.1,0-.2h0c0-.9.3-1.1,1.1-1.7.6-.5,1.3-1,1.3-2.2s-1.4-2.4-2.8-2.4-2.8.6-2.9,2.4ZM7.7,12.8c0,.6.5,1,1.1,1s1.1-.4,1.1-1-.4-1-1.1-1-1.1.4-1.1,1Z"/>
</svg>