<svg width="40" height="40" viewBox="0 0 40 40" fill="none" xmlns="http://www.w3.org/2000/svg">
<g clip-path="url(#clip0_1687_5757)">
<path d="M10.1008 34.4941C11.3418 33.2531 11.3418 31.2401 10.1008 29.9991C8.85982 28.7581 6.84682 28.7581 5.60582 29.9991C4.36482 31.2401 3.34082 36.7601 3.34082 36.7601C3.34082 36.7601 8.85982 35.7361 10.1018 34.4951L10.1008 34.4941Z" fill="#FF3D29"/>
<path d="M15.087 33.8126L6.29104 25.0166C5.99904 24.7246 6.10004 24.2306 6.48204 24.0756L10.526 22.4346L17.692 29.6006L16.026 33.6256C15.869 34.0046 15.378 34.1026 15.087 33.8126Z" fill="#8595AA"/>
<path d="M35.6211 8.7888L29.4811 34.9008C28.8381 37.6358 25.4421 38.6018 23.4561 36.6148L3.48506 16.6428C1.49906 14.6568 2.46506 11.2608 5.19906 10.6178L31.3111 4.4778C33.9031 3.8688 36.2311 6.1968 35.6221 8.7888H35.6211Z" fill="#8595AA"/>
<path d="M36.3613 3.73829C38.9699 6.34681 38.9691 10.5817 36.3613 13.1895L18.1922 31.3586L8.74104 21.9074L26.9101 3.73829C29.5187 1.12977 33.7535 1.13048 36.3613 3.73829Z" fill="#D0D6DE"/>
<path d="M30.1312 13.8151C32.2558 13.8151 33.9782 12.0927 33.9782 9.96809C33.9782 7.84345 32.2558 6.12109 30.1312 6.12109C28.0065 6.12109 26.2842 7.84345 26.2842 9.96809C26.2842 12.0927 28.0065 13.8151 30.1312 13.8151Z" fill="#6BA0FF"/>
</g>
<defs>
<clipPath id="clip0_1687_5757">
<rect width="40" height="40" fill="white"/>
</clipPath>
</defs>
</svg>
