<svg width="40" height="40" viewBox="0 0 40 40" fill="none" xmlns="http://www.w3.org/2000/svg">
<g clip-path="url(#clip0_1669_4958)">
<path d="M20 37.5C29.665 37.5 37.5 29.665 37.5 20C37.5 10.335 29.665 2.5 20 2.5C10.335 2.5 2.5 10.335 2.5 20C2.5 29.665 10.335 37.5 20 37.5Z" fill="#FFC84D"/>
<path d="M20.0002 28.8937C18.3632 28.8937 17.0852 29.1767 16.2132 29.4617C15.7612 29.6097 15.3912 29.0717 15.6852 28.6987C16.4722 27.7007 17.8592 26.5117 20.0002 26.5117C22.1412 26.5117 23.5272 27.7007 24.3152 28.6987C24.6102 29.0727 24.2402 29.6097 23.7872 29.4617C22.9152 29.1767 21.6372 28.8937 20.0002 28.8937Z" fill="#FF6D00"/>
<path d="M9.28924 19.3584C9.28924 19.3584 6.46924 22.3834 6.46924 24.8234C6.46924 26.3804 7.73224 27.6394 9.28924 27.6404C10.8462 27.6404 12.1092 26.3804 12.1092 24.8234C12.1092 22.3834 9.28924 19.3584 9.28924 19.3584Z" fill="white"/>
<path d="M13.4528 12.4842C14.5928 11.9522 15.1288 11.3842 15.5748 10.8772C15.8318 10.5852 16.1958 10.7192 16.1928 11.1352C16.1858 12.0342 15.6308 13.2552 14.1368 13.9522C12.6428 14.6482 11.3508 14.2892 10.6578 13.7162C10.3368 13.4512 10.4678 13.0852 10.8578 13.0762C11.5328 13.0612 12.3128 13.0152 13.4528 12.4842Z" fill="black"/>
<path d="M26.5471 12.4842C25.4071 11.9522 24.8711 11.3842 24.4251 10.8772C24.1681 10.5852 23.8041 10.7192 23.8071 11.1352C23.8141 12.0342 24.3691 13.2552 25.8631 13.9522C27.3571 14.6482 28.6491 14.2892 29.3421 13.7162C29.6631 13.4512 29.5321 13.0852 29.1421 13.0762C28.4671 13.0612 27.6871 13.0152 26.5471 12.4842Z" fill="black"/>
<path d="M15.4221 21.1206C16.5896 21.1206 17.5361 20.1741 17.5361 19.0066C17.5361 17.839 16.5896 16.8926 15.4221 16.8926C14.2546 16.8926 13.3081 17.839 13.3081 19.0066C13.3081 20.1741 14.2546 21.1206 15.4221 21.1206Z" fill="black"/>
<path d="M24.5779 21.1206C25.7454 21.1206 26.6919 20.1741 26.6919 19.0066C26.6919 17.839 25.7454 16.8926 24.5779 16.8926C23.4103 16.8926 22.4639 17.839 22.4639 19.0066C22.4639 20.1741 23.4103 21.1206 24.5779 21.1206Z" fill="black"/>
</g>
<defs>
<clipPath id="clip0_1669_4958">
<rect width="40" height="40" fill="white"/>
</clipPath>
</defs>
</svg>
