<svg width="40" height="40" viewBox="0 0 40 40" fill="none" xmlns="http://www.w3.org/2000/svg">
<g clip-path="url(#clip0_1342_3258)">
<path d="M33.0415 12.4211C25.7955 8.23707 14.0825 8.23707 6.87447 12.4261C-0.324527 16.6101 -0.286527 23.3941 6.95947 27.5781C14.2055 31.7621 25.9185 31.7621 33.1175 27.5781C40.3255 23.3891 40.2875 16.6051 33.0415 12.4211Z" fill="#A3ADB7"/>
<path d="M33.0418 17.7072C25.7958 13.5232 14.0828 13.5232 6.87484 17.7122C4.45784 19.1162 2.87684 20.8162 2.08984 22.6102C2.88584 24.4302 4.49584 26.1562 6.95984 27.5792C14.2058 31.7632 25.9188 31.7632 33.1178 27.5792C35.5388 26.1722 37.1218 24.4702 37.9098 22.6752C37.1138 20.8562 35.5048 19.1312 33.0408 17.7082L33.0418 17.7072Z" fill="#2E3D51"/>
</g>
<defs>
<clipPath id="clip0_1342_3258">
<rect width="40" height="40" fill="white"/>
</clipPath>
</defs>
</svg>
