<svg width="16" height="16" viewBox="0 0 16 16" fill="none" xmlns="http://www.w3.org/2000/svg">
<path fill-rule="evenodd" clip-rule="evenodd" d="M8.2764 3.22662C8.87654 2.64544 9.68109 2.32348 10.5165 2.33018C11.3519 2.33688 12.1512 2.67172 12.7419 3.26245C13.3326 3.85319 13.6675 4.65247 13.6742 5.48787C13.6809 6.32326 13.3589 7.12781 12.7777 7.72795L12.7691 7.73662L11.2597 9.24662C10.9369 9.56937 10.5485 9.81895 10.1208 9.97843C9.69314 10.1379 9.23614 10.2036 8.78084 10.1709C8.32554 10.1383 7.88258 10.0082 7.48199 9.78934C7.0814 9.57051 6.73254 9.2681 6.45907 8.90262C6.35733 8.76084 6.31524 8.58482 6.34183 8.41235C6.36842 8.23989 6.46158 8.08472 6.6013 7.98017C6.74102 7.87562 6.91616 7.83002 7.08913 7.85317C7.26209 7.87631 7.41908 7.96635 7.5264 8.10395C7.68522 8.31652 7.88791 8.49242 8.12073 8.61972C8.35354 8.74701 8.61102 8.82271 8.87569 8.84169C9.14035 8.86066 9.406 8.82246 9.65459 8.72967C9.90318 8.63689 10.1289 8.49169 10.3164 8.30395L11.8224 6.79795C12.1518 6.44747 12.3318 5.98252 12.3243 5.50161C12.3168 5.02069 12.1223 4.5616 11.7821 4.22159C11.4419 3.88157 10.9827 3.68736 10.5018 3.68008C10.0209 3.67281 9.55605 3.85305 9.20574 4.18262L8.34374 5.03995C8.21767 5.16108 8.04906 5.22784 7.87424 5.22585C7.69942 5.22386 7.53238 5.15327 7.40911 5.02929C7.28583 4.90532 7.21619 4.73788 7.21519 4.56306C7.21418 4.38823 7.28189 4.22 7.40374 4.09462L8.26907 3.23395L8.2764 3.22662ZM5.8784 6.02129C6.52301 5.78092 7.22813 5.75585 7.88818 5.94983C8.54822 6.1438 9.12767 6.54639 9.53974 7.09729C9.64147 7.23906 9.68357 7.41508 9.65697 7.58755C9.63038 7.76002 9.53723 7.91518 9.39751 8.01973C9.25779 8.12428 9.08264 8.16988 8.90968 8.14674C8.73672 8.12359 8.57972 8.03356 8.4724 7.89595C8.31352 7.68348 8.1108 7.50766 7.87799 7.38043C7.64518 7.2532 7.38772 7.17754 7.12309 7.15857C6.85846 7.1396 6.59285 7.17777 6.34427 7.27049C6.09569 7.36321 5.86997 7.50831 5.6824 7.69595L4.17707 9.20195C3.84262 9.5513 3.65828 10.0177 3.66352 10.5013C3.66876 10.9849 3.86316 11.4472 4.2051 11.7893C4.54703 12.1313 5.0093 12.3258 5.4929 12.3312C5.9765 12.3365 6.44297 12.1523 6.7924 11.818L7.64907 10.9613C7.71057 10.8976 7.78413 10.8468 7.86547 10.8119C7.9468 10.7769 8.03428 10.7586 8.1228 10.7578C8.21132 10.757 8.29911 10.7739 8.38104 10.8074C8.46297 10.8409 8.5374 10.8904 8.6 10.953C8.66259 11.0156 8.7121 11.0901 8.74562 11.172C8.77914 11.2539 8.79601 11.3417 8.79524 11.4302C8.79447 11.5187 8.77608 11.6062 8.74114 11.6876C8.7062 11.7689 8.65541 11.8425 8.59174 11.904L7.73107 12.7646L7.72307 12.7733C7.12293 13.3545 6.31838 13.6764 5.48298 13.6697C4.64759 13.663 3.84831 13.3282 3.25757 12.7374C2.66684 12.1467 2.332 11.3474 2.3253 10.512C2.31859 9.67664 2.64056 8.87209 3.22174 8.27195L3.22974 8.26329L4.73974 6.75329C5.06275 6.43088 5.45099 6.1813 5.8784 6.02129Z" fill="#808991"/>
</svg>
