<svg width="20" height="20" viewBox="0 0 20 20" fill="none" xmlns="http://www.w3.org/2000/svg">
<g clip-path="url(#clip0_1584_6220)">
<path d="M11 14.1827L10.1076 15L5.24723 10.5459C5.16888 10.4745 5.1067 10.3896 5.06427 10.2961C5.02184 10.2027 5 10.1024 5 10.0012C5 9.8999 5.02184 9.79965 5.06427 9.70616C5.1067 9.61268 5.16888 9.52781 5.24723 9.45644L10.1076 5L10.9992 5.81727L6.43731 10L11 14.1827Z" fill="#BBC0C5"/>
<path d="M15 14.1827L14.1076 15L9.24723 10.5459C9.16888 10.4745 9.1067 10.3896 9.06427 10.2961C9.02184 10.2027 9 10.1024 9 10.0012C9 9.8999 9.02184 9.79965 9.06427 9.70616C9.1067 9.61268 9.16888 9.52781 9.24723 9.45644L14.1076 5L14.9992 5.81727L10.4373 10L15 14.1827Z" fill="#BBC0C5"/>
</g>
<defs>
<clipPath id="clip0_1584_6220">
<rect width="20" height="20" fill="white"/>
</clipPath>
</defs>
</svg>
