<svg width="20" height="20" viewBox="0 0 20 20" fill="none" xmlns="http://www.w3.org/2000/svg">
<g clip-path="url(#clip0_1584_6241)">
<path d="M9 5.81727L9.89235 5L14.7528 9.45412C14.8311 9.5255 14.8933 9.61037 14.9357 9.70385C14.9782 9.79734 15 9.89759 15 9.99884C15 10.1001 14.9782 10.2004 14.9357 10.2938C14.8933 10.3873 14.8311 10.4722 14.7528 10.5436L9.89235 15L9.00084 14.1827L13.5627 10L9 5.81727Z" fill="#BBC0C5"/>
<path d="M5 5.81727L5.89235 5L10.7528 9.45412C10.8311 9.5255 10.8933 9.61037 10.9357 9.70385C10.9782 9.79734 11 9.89759 11 9.99884C11 10.1001 10.9782 10.2004 10.9357 10.2938C10.8933 10.3873 10.8311 10.4722 10.7528 10.5436L5.89235 15L5.00084 14.1827L9.56269 10L5 5.81727Z" fill="#BBC0C5"/>
</g>
<defs>
<clipPath id="clip0_1584_6241">
<rect width="20" height="20" fill="white"/>
</clipPath>
</defs>
</svg>
