<svg width="16" height="16" viewBox="0 0 16 16" fill="none" xmlns="http://www.w3.org/2000/svg">
<path d="M7.1917 2.06791C7.5217 1.39924 8.4757 1.39924 8.8057 2.06791L10.3777 5.25324L13.893 5.76391C14.631 5.87057 14.9257 6.77857 14.3917 7.29924L11.8477 9.77857L12.4484 13.2786C12.575 14.0146 11.803 14.5752 11.1424 14.2279L7.99836 12.5746L4.85503 14.2279C4.19503 14.5746 3.42303 14.0146 3.54836 13.2792L4.14903 9.77857L1.6057 7.29857C1.0717 6.77857 1.36636 5.87124 2.10436 5.76391L5.6197 5.25324L7.1917 2.06791ZM7.99836 2.69257L6.49303 5.74257C6.42852 5.87345 6.33316 5.98667 6.21516 6.0725C6.09717 6.15833 5.96008 6.21418 5.8157 6.23524L2.44903 6.72457L4.88503 9.09924C5.09703 9.30591 5.1937 9.60391 5.1437 9.89591L4.56903 13.2486L7.5797 11.6652C7.7089 11.5973 7.8527 11.5618 7.9987 11.5618C8.14469 11.5618 8.28849 11.5973 8.4177 11.6652L11.4284 13.2486L10.8537 9.89524C10.8291 9.75153 10.8398 9.604 10.8849 9.46534C10.9299 9.32668 11.008 9.20105 11.1124 9.09924L13.5484 6.72457L10.1817 6.23524C10.0373 6.21418 9.90022 6.15833 9.78223 6.0725C9.66423 5.98667 9.56887 5.87345 9.50436 5.74257L7.99836 2.69257Z" fill="#808991"/>
</svg>
